# xmcd
#
# Track frame offsets:
#   150
#   14674
#   28280
#   42730
#   56783
#   72398
#   85471
#   97450
#   108094
#   119214
#   131706
#   144292
#   154932
#   166584
#   175429
#   187148
#   197848
#   210943
#   222871
#   235357
#   246607
#   256941
#   270290
#   284359
#   296328
#
# Disc length: 4099 seconds
#
# Revision: 2
# Processed by: cddbd v1.5.1PL0 Copyright (c) Steve Scherf et al.
# Submitted via: Media_Universe 3.0
#
DISCID=93100119
DTITLE=Various Artist - Les Duos (The Duets) 1928-1951 - Les Triomphes De La Country Music Vol.18
DYEAR=2002
DGENRE=Country
TTITLE0=Val and Pete - Yodel Blues
TTITLE1=Jesse Johnson and Byrd Moore - Killin' Blues
TTITLE2=Tarlton and Darby - Frankie Dean
TTITLE3=Callahan Brothers - Brown's Ferry Blues No. 2
TTITLE4=Girls Of The Golden West - I Want To Be A Real Cowboy Girl
TTITLE5=Blue Sky Boys - I'm Here To Get My Baby Out Of Jail
TTITLE6=Monroe Brothers - Don't Forget Me
TTITLE7=Monroe Brothers - Just A Song Of Old Kentucky
TTITLE8=Monroe Brothers - Roll In My Sweet Baby's Arms
TTITLE9=Bill Cox and Cliff Hobbs - Kansa City Blues
TTITLE10=Callahan Brothers - Somebody's Been Using That Thing
TTITLE11=Dixon Brothers - Fisherman's Luck
TTITLE12=Dixon Brothers - Prisoner's Plea
TTITLE13=Morris Brothers - Let Me Be Your Salty Dog
TTITLE14=Wiley Walker and Gene Sullivan - When My Blue Moon Turns To Gold Again
TTITLE15=Jimmy Wakely and Fiddlin' Arthur Smith - Take Me Back To Tennessee
TTITLE16=Karl and Harty - Mean Mean Mama
TTITLE17=Karl and Harty - Why Girl Do Wear Breeches
TTITLE18=Homer and Jethro - Poor Little Liza, Poor Girl
TTITLE19=Armstrong Twins - Three Miles South Of Cash (In Arkansas)
TTITLE20=Rosalie Allen and Billy Williams - He Lived In Texas (And She Lived In Arkansas)
TTITLE21=Blue Sky Boys - Alabama
TTITLE22=Ernest Tubb and Red Foley - Texas Vs. Kentucky
TTITLE23=Louvin Brothers - I'm Changing The Words To My Love Song
TTITLE24=Louvin Brothers - The Get Acquainted Waltz
EXTD=YEAR: 2002
EXTT0=
EXTT1=
EXTT2=
EXTT3=
EXTT4=
EXTT5=
EXTT6=
EXTT7=
EXTT8=
EXTT9=
EXTT10=
EXTT11=
EXTT12=
EXTT13=
EXTT14=
EXTT15=
EXTT16=
EXTT17=
EXTT18=
EXTT19=
EXTT20=
EXTT21=
EXTT22=
EXTT23=
EXTT24=
PLAYORDER=
